# xmcd
# Copyright (C) 1995-1998 Ti Kan
#
# Track frame offsets:
#       150
#       14775
#       31650
#       53850
#       78825
#       115275
#       129825
#       158325
#       174150
#       206625
#       240975
#       254850
#       272925
#       290550
#
# Disc length: 4254 seconds
#
# Revision: 16
# Processed by: cddbd v1.5.2PL0 Copyright (c) Steve Scherf et al.
# Submitted via: CD-Transfer v1.0
#
DISCID=ba109c0e
DTITLE=Lewis, Blake - 
DYEAR=2008
DGENRE=
TTITLE0=WHEN YOU TOUCH ME (RADIO EDIT)
TTITLE1=Blackout (Radio Edit)
TTITLE2=Situation (Hercules And Love Affair Mix)
TTITLE3=Crazy World (Afterlife'
TTITLE4=R U Sure
TTITLE5=Boyfriend
TTITLE6=Cr'e Sabe 2008
TTITLE7=Pink Neon (Sunship Remix)
TTITLE8=I Love To Move In Here (Style 01 Eye Piano Remix)
TTITLE9=In My Arms (Bronieewe and Bose Extended Mix)
TTITLE10=Don't You Wanna Be Mine (Bimbo Jones Radio Edit)
TTITLE11=I Decided Part 2
TTITLE12=When I Grow Up (Ralphi Rosario Radio Edit)
TTITLE13=How Many Words (Jake Benson Club Mix)
EXTD=
EXTT0=
EXTT1=
EXTT2=
EXTT3=
EXTT4=
EXTT5=
EXTT6=
EXTT7=
EXTT8=
EXTT9=
EXTT10=
EXTT11=
EXTT12=
EXTT13=
PLAYORDER=
